<svg width="102px" height="110px" viewBox="0 0 102 110" version="1.1" xmlns="http://www.w3.org/2000/svg" xmlns:xlink="http://www.w3.org/1999/xlink">
    <g id="Build" transform="translate(-9.000000, -5.000000)">
        <circle id="BG-Circle" fill="#FFFFFF" fill-rule="nonzero" cx="58.0776" cy="66.0896" r="48.906"></circle>
        <path d="M44.5901842,5 L44.598,5.076 L110.9304,16.7815093 L110.9304,29.5388 L84.504,29.538 L84.504,38.9768 L80.7288,38.9768 L80.728,29.538 L46.751,29.538 L46.7510385,113.677337 C44.8166646,113.218652 42.9267545,112.645078 41.0889132,111.96422 L41.089,109.658 L31.651,100.448 L31.6512092,107.248145 C29.6598754,105.966935 27.7675568,104.545155 25.9882732,102.996825 L25.988,29.538 L9,29.5388 L9,17.6416807 L27.9625211,5 L44.5901842,5 Z M41.089,86.193 L31.8826,95.3996 L41.089,104.384 L41.089,86.193 Z M31.65,72.087 L31.651,90.292 L40.6926,81.2496 L31.65,72.087 Z M41.088,57.69 L31.8576,66.9216 L41.089,76.276 L41.088,57.69 Z M31.65,44.477 L31.65,61.789 L40.3066,53.1326 L31.65,44.477 Z M41.088,31.704 L32.6256,40.1136 L41.088,48.576 L41.088,31.704 Z M37.912,29.538 L31.65,29.538 L31.65,35.76 L37.912,29.538 Z M27.429,12.159 L14.6626,20.6716 L14.6626,23.8756 L26.257,23.875 L27.429,12.159 Z M87.379,18.375 L81.78,23.875 L105.2676,23.8756 L105.2676,21.5316 L87.379,18.375 Z M39.4756,10.6626 L33.2696,10.6626 L31.947,23.875 L40.823,23.875 L39.4756,10.6626 Z M59.461,13.448 L48.967,23.875 L69.994,23.875 L59.735,13.497 L59.461,13.448 Z M66.165,14.631 L75.301,23.875 L76.393,23.875 L82.812,17.569 L66.165,14.631 Z M45.195,10.931 L46.248,21.256 L54.913,12.646 L45.195,10.931 Z" id="Gray" fill="#D4DCE6" fill-rule="nonzero"></path>
        <path d="M109.0428,86.1668 L56.19,86.1668 C55.05744,86.1668 54.3024,85.41176 54.3024,84.2792 L54.3024,44.6396 C54.3024,43.50704 55.05744,42.752 56.19,42.752 L109.0428,42.752 C110.17536,42.752 110.9304,43.50704 110.9304,44.6396 L110.9304,84.2792 C110.9304,85.41176 110.17536,86.1668 109.0428,86.1668 Z" id="Color" class="bColorFill" fill="#e7303e"></path>
        <path d="M110.9304,44.6396 C110.9304,43.50704 110.17536,42.752 109.0428,42.752 L56.19,42.752 C55.05744,42.752 54.3024,43.50704 54.3024,44.6396 L54.3024,54.0776 L110.9304,54.0776 L110.9304,44.6396 Z" id="Dark" fill="#000F38" fill-rule="nonzero"></path>
        <path d="M81.29508,75.3124594 C82.3375727,75.3124594 83.18268,76.1575667 83.18268,77.2000594 C83.18268,78.2425521 82.3375727,79.0876594 81.29508,79.0876594 C80.2525873,79.0876594 79.40748,78.2425521 79.40748,77.2000594 C79.40748,76.1575667 80.2525873,75.3124594 81.29508,75.3124594 Z M82.5449311,59.8269866 L82.775503,59.8664699 L82.8854502,59.8904984 C85.0718294,60.4370932 86.9212062,62.28647 87.4875041,64.5604706 C88.1353681,67.7997909 86.3058749,70.7577581 83.4289702,71.7507238 L83.1826,71.8286 L83.18268,73.4248594 L79.40748,73.4248594 L79.40748,68.3283394 L81.29508,68.3283394 C82.9611394,68.3283394 84.1132518,66.9390275 83.805319,65.3884697 C83.6099016,64.6068002 82.900484,63.8607418 82.125556,63.5987843 L82.0156,63.5666 L81.8943709,63.5471679 C80.2384573,63.3248185 78.9371097,64.339645 78.8462685,65.7196653 L78.8412,65.8744594 L75.066,65.8744594 C75.066,62.0249123 78.5575185,59.2089434 82.5449311,59.8269866 Z M63.7404001,46.5272 L63.7404001,50.3024 L59.9652,50.3024 L59.9652,46.5272 L63.7404001,46.5272 Z M71.2908004,46.5272 L71.2908004,50.3024 L67.5156003,50.3024 L67.5156003,46.5272 L71.2908004,46.5272 Z M78.8412,46.5272 L78.8412,50.3024 L75.0660005,50.3024 L75.0660005,46.5272 L78.8412,46.5272 Z" id="White" fill="#FFFFFF" fill-rule="nonzero"></path>
    </g>
</svg>