<svg width="103px" height="110px" viewBox="0 0 103 110" version="1.1" xmlns="http://www.w3.org/2000/svg" xmlns:xlink="http://www.w3.org/1999/xlink">
    <g id="Share" transform="translate(-8.000000, -5.000000)">
        <circle id="BG-Circle" fill="#FFFFFF" fill-rule="nonzero" cx="58.906" cy="65.906" r="48.906"></circle>
        <path d="M95.638944,93.274168 L22.35128,93.274168 L22.35128,52.915568 C22.35128,50.9637896 23.9481896,49.36688 25.899968,49.36688 L92.090256,49.36688 C94.0420344,49.36688 95.638944,50.9637896 95.638944,52.915568 L95.638944,93.274168 Z" id="Path" fill="#D4DCE6" fill-rule="nonzero"></path>
        <path d="M70.4356,105 L70.4360853,113.445014 C66.7388756,114.338552 62.8777277,114.812 58.906,114.812 C55.1566646,114.812 51.5058722,114.390088 47.9985104,113.591151 L48,105 L70.4356,105 Z" id="Color-2" fill="#000f38" fill-rule="nonzero"></path>
        <path d="M95.638944,92.168088 L95.6398794,98.1934566 C93.313094,100.83859 90.7051203,103.230361 87.8626819,105.322046 L29.9493181,105.322046 C27.1790527,103.283471 24.6314964,100.959857 22.3499035,98.3944553 L22.35128,92.168088 L95.638944,92.168088 Z M96.0668573,33 C103.803629,33 110.133715,39.3300858 110.133715,47.0668573 C110.133715,54.8036288 103.803629,61.1337146 96.0668573,61.1337146 C88.3300858,61.1337146 82,54.8036288 82,47.0668573 C82,39.3300858 88.3300858,33 96.0668573,33 Z M22.0668573,33 C29.8036288,33 36.1337146,39.3300858 36.1337146,47.0668573 C36.1337146,54.8036288 29.8036288,61.1337146 22.0668573,61.1337146 C14.3300858,61.1337146 8,54.8036288 8,47.0668573 C8,39.3300858 14.3300858,33 22.0668573,33 Z M59.0668573,5 C66.8036288,5 73.1337146,11.3300858 73.1337146,19.0668573 C73.1337146,26.8036288 66.8036288,33.1337146 59.0668573,33.1337146 C51.3300858,33.1337146 45,26.8036288 45,19.0668573 C45,11.3300858 51.3300858,5 59.0668573,5 Z" id="Color" class="bColorFill" fill="#e7303e"></path>
        <path d="M96.0668573,40.0334286 C98.6564942,40.0334286 100.75581,42.1327442 100.75581,44.7223811 C100.75581,47.312018 98.6564942,49.4113335 96.0668573,49.4113335 C93.4772204,49.4113335 91.3779049,47.312018 91.3779049,44.7223811 C91.3779049,42.1327442 93.4772204,40.0334286 96.0668573,40.0334286 Z M22.0668573,40.0334286 C24.6564942,40.0334286 26.7558097,42.1327442 26.7558097,44.7223811 C26.7558097,47.312018 24.6564942,49.4113335 22.0668573,49.4113335 C19.4772204,49.4113335 17.3779049,47.312018 17.3779049,44.7223811 C17.3779049,42.1327442 19.4772204,40.0334286 22.0668573,40.0334286 Z M59.0668573,12.0334286 C61.6564942,12.0334286 63.7558097,14.1327442 63.7558097,16.7223811 C63.7558097,19.312018 61.6564942,21.4113335 59.0668573,21.4113335 C56.4772204,21.4113335 54.3779049,19.312018 54.3779049,16.7223811 C54.3779049,14.1327442 56.4772204,12.0334286 59.0668573,12.0334286 Z" id="White" fill="#FFFFFF" fill-rule="nonzero"></path>
        <path d="M46,74 C47.1045695,74 48,74.8954305 48,76 C48,77.1045695 47.1045695,78 46,78 C44.8954305,78 44,77.1045695 44,76 C44,74.8954305 44.8954305,74 46,74 Z M72,74 C73.1045695,74 74,74.8954305 74,76 C74,77.1045695 73.1045695,78 72,78 C70.8954305,78 70,77.1045695 70,76 C70,74.8954305 70.8954305,74 72,74 Z M59,63 C60.1045695,63 61,63.8954305 61,65 C61,66.1045695 60.1045695,67 59,67 C57.8954305,67 57,66.1045695 57,65 C57,63.8954305 57.8954305,63 59,63 Z M96.0668573,52.6936002 C100.521362,52.6936002 104.272524,54.1002859 105.210315,57.8514479 C102.865838,59.9614765 99.5835716,61.1337146 96.0668573,61.1337146 C92.550143,61.1337146 89.2678763,59.9614765 86.9234,57.8514479 C87.8611905,54.1002859 91.6123525,52.6936002 96.0668573,52.6936002 Z M22.0668573,52.6936002 C26.5213621,52.6936002 30.272524,54.1002859 31.2103145,57.8514479 C28.8658383,59.9614765 25.5835716,61.1337146 22.0668573,61.1337146 C18.550143,61.1337146 15.2678763,59.9614765 12.9234,57.8514479 C13.8611905,54.1002859 17.6123525,52.6936002 22.0668573,52.6936002 Z M59.0668573,24.6936002 C63.5213621,24.6936002 67.272524,26.1002859 68.2103145,29.8514479 C65.8658383,31.9614765 62.5835716,33.1337146 59.0668573,33.1337146 C55.550143,33.1337146 52.2678763,31.9614765 49.9234,29.8514479 C50.8611905,26.1002859 54.6123525,24.6936002 59.0668573,24.6936002 Z" id="Dark" fill="#000F38"></path>
    </g>
</svg>