<svg width="98px" height="107px" viewBox="0 0 98 107" version="1.1" xmlns="http://www.w3.org/2000/svg" xmlns:xlink="http://www.w3.org/1999/xlink">
    <g id="Train" transform="translate(-11.000000, -8.000000)">
        <circle id="BG-Circle" fill="#FFFFFF" fill-rule="nonzero" cx="59.906" cy="66.0585918" r="48.906"></circle>
        <path d="M94.5374492,100.5906 C85.6833066,109.47008 73.4363093,114.964592 59.906,114.964592 C46.3756907,114.964592 34.1286934,109.47008 25.2745508,100.5906 L94.5374492,100.5906 Z" id="Shelf" fill="#C7D0DB"></path>
        <path d="M39.3044539,17.1753267 L39.3044539,100.589176 L25.2727576,100.589176 C23.8250417,99.136793 22.4680457,97.5942831 21.2109923,95.9704947 L21.2124874,17.1753267 L39.3044539,17.1753267 Z" id="Book" fill="#D4DCE6" fill-rule="nonzero"></path>
        <path d="M65.6604004,8 L82.8617677,98.8516685 L72.858041,100.720116 L55.6566737,9.86844784 L65.6604004,8 Z M39.3044539,41.7902847 L39.3044539,55.3592596 L21.2124874,55.3592596 L21.2124874,41.7902847 L39.3044539,41.7902847 Z" id="Dark" fill="#000F38" fill-rule="nonzero"></path>
        <path d="M59.6579162,32.7443015 L59.6579162,100.589176 L39.3044539,100.589176 L39.3044539,32.7443015 L59.6579162,32.7443015 Z M86.2064296,37.43487 L107.569183,77.0620701 C106.106962,83.4217282 103.40465,89.3077591 99.73045,94.4519611 L72.8696199,44.6245044 L86.2064296,37.43487 Z M55.4014418,52.8312465 L43.5609282,52.8312465 L43.5609282,57.8872727 L55.4014418,57.8872727 L55.4014418,52.8312465 Z M55.4014418,41.5237675 L43.5609282,41.5237675 L43.5609282,46.5797936 L55.4014418,46.5797936 L55.4014418,41.5237675 Z" id="Color" class="bColorFill" fill="#e7303e"></path>
        <rect id="Color-2" fill="#000f38" fill-rule="nonzero" transform="translate(91.403517, 57.698291) rotate(-28.328309) translate(-91.403517, -57.698291) " x="86.3153996" y="52.6101738" width="10.1762339" height="10.1762339"></rect>
    </g>
</svg>