<svg width="35" height="36" viewBox="0 0 35 36" fill="none" xmlns="http://www.w3.org/2000/svg">
<path d="M19.5366 7.23255L18.8172 6.52942C18.4311 6.15213 17.8131 6.16003 17.4367 6.54705L5.28777 19.0411C4.91144 19.4281 4.91931 20.0477 5.30536 20.425L6.02483 21.1281C6.41088 21.5054 7.02891 21.4975 7.40525 21.1105L19.5542 8.61646C19.9306 8.22944 19.9227 7.60984 19.5366 7.23255Z" fill="#5B52E7"/>
<path d="M34.2031 21.5654L33.4837 20.8622C33.0976 20.485 32.4796 20.4929 32.1033 20.8799L19.9543 33.3739C19.5779 33.7609 19.5858 34.3805 19.9719 34.7578L20.6913 35.461C21.0774 35.8382 21.6954 35.8304 22.0717 35.4433L34.2207 22.9493C34.5971 22.5623 34.5892 21.9427 34.2031 21.5654Z" fill="#5B52E7"/>
<path d="M25.1909 8.64918L24.4715 7.94605C24.0854 7.56876 23.4674 7.57665 23.091 7.96368L6.76582 24.7526C6.38949 25.1396 6.39737 25.7592 6.78341 26.1365L7.50288 26.8396C7.88893 27.2169 8.50696 27.209 8.8833 26.822L25.2085 10.0331C25.5849 9.64606 25.577 9.02647 25.1909 8.64918Z" fill="#5B52E7"/>
<path d="M32.5879 15.8774L31.8684 15.1743C31.4824 14.797 30.8644 14.8049 30.488 15.1919L14.1628 31.9809C13.7864 32.3679 13.7943 32.9875 14.1804 33.3648L14.8998 34.0679C15.2859 34.4452 15.9039 34.4373 16.2803 34.0503L32.6055 17.2613C32.9818 16.8743 32.974 16.2547 32.5879 15.8774Z" fill="#5B52E7"/>
<path d="M30.1411 10.981L29.4217 10.2779C29.0356 9.90058 28.4176 9.90847 28.0412 10.2955L20.0877 18.475C19.7113 18.862 19.7192 19.4816 20.1053 19.8589L20.8247 20.562C21.2108 20.9393 21.8288 20.9314 22.2051 20.5444L30.1587 12.3649C30.535 11.9779 30.5272 11.3583 30.1411 10.981Z" fill="#5B52E7"/>
<path d="M19.2451 22.1877L18.5257 21.4846C18.1396 21.1073 17.5216 21.1152 17.1452 21.5022L9.19167 29.6817C8.81534 30.0687 8.82321 30.6883 9.20926 31.0656L9.92873 31.7687C10.3148 32.146 10.9328 32.1381 11.3092 31.7511L19.2627 23.5716C19.6391 23.1846 19.6312 22.565 19.2451 22.1877Z" fill="#5B52E7"/>
<mask id="mask0_4_58" style="mask-type:luminance" maskUnits="userSpaceOnUse" x="0" y="0" width="19" height="20">
<path d="M12.7563 -2.87086e-05L0 13.2391L6.17826 19.192L18.9345 5.95291L12.7563 -2.87086e-05Z" fill="white"/>
</mask>
<g mask="url(#mask0_4_58)">
<path d="M0.944238 13.3586C1.50737 14.5809 2.54599 14.5242 2.90676 13.2857C3.33998 11.8148 5.93349 10.5372 7.82809 10.9276C9.29698 11.2099 9.37548 11.2856 9.05094 12.408C8.87131 13.0657 9.04495 14.0639 9.40426 14.7122C10.0398 15.7023 9.89343 16.0899 7.89927 18.4738C6.20552 20.4673 5.57453 21.6721 5.26662 23.6414C3.6501 33.489 15.2232 40.4103 22.7636 34.1556C24.2792 32.8968 25.5775 32.3349 27.9219 32.1014C32.7241 31.5167 32.6108 31.6342 33.0666 27.3904C33.3262 24.9214 33.9391 22.7928 34.6878 21.7014C38.7712 15.8923 35.3244 7.0575 28.2804 5.25547C24.4097 4.24504 21.1535 5.1107 18.0512 7.93755C16.3107 9.50832 15.3219 10.1418 14.9686 9.80137C14.6939 9.53663 13.6507 9.36236 12.6498 9.37988C10.9953 9.44736 10.8005 9.33525 10.5438 8.03049C10.0833 6.1517 11.303 3.55035 12.7961 3.10062C13.6762 2.81566 13.8241 2.50501 13.504 1.8945C12.9409 0.672121 11.6336 0.772028 11.2366 2.12674C11.0177 2.74669 10.5452 4.17974 10.106 5.34265C9.70443 6.46639 9.54295 8.04802 9.86604 8.81251C10.1891 9.577 10.319 10.3064 10.168 10.463C10.0171 10.6197 9.28337 10.517 8.50741 10.2226C7.73145 9.92809 6.1569 10.1482 5.04885 10.5912C3.90305 11.0733 2.52779 11.6365 1.99188 11.7999C0.615106 12.2861 0.503399 12.4806 0.944238 13.3586ZM22.4021 9.86375C28.282 7.29633 34.2211 13.6231 31.2126 19.2593C30.654 20.2318 28.2462 23.1235 25.8686 25.5911C23.491 28.0587 20.6908 30.5722 19.7397 31.1664C14.3338 34.3417 7.75465 28.7578 9.94797 22.7892C10.825 20.3864 19.958 10.9077 22.4021 9.86375Z" fill="#5B52E7"/>
</g>
</svg>
