<svg width="102" height="36" viewBox="0 0 102 36" fill="none" xmlns="http://www.w3.org/2000/svg">
<path d="M48.9798 15.7151C50.0038 15.7151 50.8251 16.0565 51.4438 16.7391C52.0624 17.4111 52.3718 18.3391 52.3718 19.5231V24.7391H49.6518V19.8911C49.6518 19.2938 49.4971 18.8298 49.1878 18.4991C48.8784 18.1685 48.4624 18.0031 47.9398 18.0031C47.4171 18.0031 47.0011 18.1685 46.6918 18.4991C46.3824 18.8298 46.2278 19.2938 46.2278 19.8911V24.7391H43.4918V12.8991H46.2278V17.0111C46.5051 16.6165 46.8838 16.3018 47.3638 16.0671C47.8438 15.8325 48.3824 15.7151 48.9798 15.7151ZM53.729 20.2751C53.729 19.3471 53.9157 18.5365 54.289 17.8431C54.673 17.1498 55.201 16.6165 55.873 16.2431C56.5557 15.8698 57.3343 15.6831 58.209 15.6831C59.329 15.6831 60.2623 15.9765 61.009 16.5631C61.7663 17.1498 62.2623 17.9765 62.497 19.0431H59.585C59.3397 18.3605 58.865 18.0191 58.161 18.0191C57.6597 18.0191 57.2597 18.2165 56.961 18.6111C56.6623 18.9951 56.513 19.5498 56.513 20.2751C56.513 21.0005 56.6623 21.5605 56.961 21.9551C57.2597 22.3391 57.6597 22.5311 58.161 22.5311C58.865 22.5311 59.3397 22.1898 59.585 21.5071H62.497C62.2623 22.5525 61.7663 23.3738 61.009 23.9711C60.2517 24.5685 59.3183 24.8671 58.209 24.8671C57.3343 24.8671 56.5557 24.6805 55.873 24.3071C55.201 23.9338 54.673 23.4005 54.289 22.7071C53.9157 22.0138 53.729 21.2031 53.729 20.2751ZM68.0245 24.8671C67.1498 24.8671 66.3605 24.6805 65.6565 24.3071C64.9632 23.9338 64.4138 23.4005 64.0085 22.7071C63.6138 22.0138 63.4165 21.2031 63.4165 20.2751C63.4165 19.3578 63.6192 18.5525 64.0245 17.8591C64.4298 17.1551 64.9845 16.6165 65.6885 16.2431C66.3925 15.8698 67.1818 15.6831 68.0565 15.6831C68.9312 15.6831 69.7205 15.8698 70.4245 16.2431C71.1285 16.6165 71.6832 17.1551 72.0885 17.8591C72.4938 18.5525 72.6965 19.3578 72.6965 20.2751C72.6965 21.1925 72.4885 22.0031 72.0725 22.7071C71.6672 23.4005 71.1072 23.9338 70.3925 24.3071C69.6885 24.6805 68.8992 24.8671 68.0245 24.8671ZM68.0245 22.4991C68.5472 22.4991 68.9898 22.3071 69.3525 21.9231C69.7258 21.5391 69.9125 20.9898 69.9125 20.2751C69.9125 19.5605 69.7312 19.0111 69.3685 18.6271C69.0165 18.2431 68.5792 18.0511 68.0565 18.0511C67.5232 18.0511 67.0805 18.2431 66.7285 18.6271C66.3765 19.0005 66.2005 19.5498 66.2005 20.2751C66.2005 20.9898 66.3712 21.5391 66.7125 21.9231C67.0645 22.3071 67.5018 22.4991 68.0245 22.4991ZM85.54 15.7151C86.6493 15.7151 87.5293 16.0511 88.18 16.7231C88.8413 17.3951 89.172 18.3285 89.172 19.5231V24.7391H86.452V19.8911C86.452 19.3151 86.2973 18.8725 85.988 18.5631C85.6893 18.2431 85.2733 18.0831 84.74 18.0831C84.2067 18.0831 83.7853 18.2431 83.476 18.5631C83.1773 18.8725 83.028 19.3151 83.028 19.8911V24.7391H80.308V19.8911C80.308 19.3151 80.1533 18.8725 79.844 18.5631C79.5453 18.2431 79.1293 18.0831 78.596 18.0831C78.0627 18.0831 77.6413 18.2431 77.332 18.5631C77.0333 18.8725 76.884 19.3151 76.884 19.8911V24.7391H74.148V15.8111H76.884V16.9311C77.1613 16.5578 77.524 16.2645 77.972 16.0511C78.42 15.8271 78.9267 15.7151 79.492 15.7151C80.164 15.7151 80.7613 15.8591 81.284 16.1471C81.8173 16.4351 82.2333 16.8458 82.532 17.3791C82.8413 16.8885 83.2627 16.4885 83.796 16.1791C84.3293 15.8698 84.9107 15.7151 85.54 15.7151ZM93.8215 17.0751C94.0775 16.6591 94.4455 16.3231 94.9255 16.0671C95.4055 15.8111 95.9548 15.6831 96.5735 15.6831C97.3095 15.6831 97.9762 15.8698 98.5735 16.2431C99.1708 16.6165 99.6402 17.1498 99.9815 17.8431C100.334 18.5365 100.51 19.3418 100.51 20.2591C100.51 21.1765 100.334 21.9871 99.9815 22.6911C99.6402 23.3845 99.1708 23.9231 98.5735 24.3071C97.9762 24.6805 97.3095 24.8671 96.5735 24.8671C95.9442 24.8671 95.3948 24.7445 94.9255 24.4991C94.4562 24.2431 94.0882 23.9071 93.8215 23.4911V24.7391H91.0855V12.8991H93.8215V17.0751ZM97.7255 20.2591C97.7255 19.5765 97.5335 19.0431 97.1495 18.6591C96.7762 18.2645 96.3122 18.0671 95.7575 18.0671C95.2135 18.0671 94.7495 18.2645 94.3655 18.6591C93.9922 19.0538 93.8055 19.5925 93.8055 20.2751C93.8055 20.9578 93.9922 21.4965 94.3655 21.8911C94.7495 22.2858 95.2135 22.4831 95.7575 22.4831C96.3015 22.4831 96.7655 22.2858 97.1495 21.8911C97.5335 21.4858 97.7255 20.9418 97.7255 20.2591Z" fill="white"/>
<path d="M19.5366 7.23255L18.8172 6.52942C18.4311 6.15213 17.8131 6.16003 17.4367 6.54705L5.28777 19.0411C4.91144 19.4281 4.91931 20.0477 5.30536 20.425L6.02483 21.1281C6.41088 21.5054 7.02891 21.4975 7.40525 21.1105L19.5542 8.61646C19.9306 8.22944 19.9227 7.60984 19.5366 7.23255Z" fill="#5B52E7"/>
<path d="M34.2031 21.5654L33.4837 20.8622C33.0976 20.485 32.4796 20.4929 32.1033 20.8799L19.9543 33.3739C19.5779 33.7609 19.5858 34.3805 19.9719 34.7578L20.6913 35.461C21.0774 35.8382 21.6954 35.8304 22.0717 35.4433L34.2207 22.9493C34.5971 22.5623 34.5892 21.9427 34.2031 21.5654Z" fill="#5B52E7"/>
<path d="M25.1909 8.64918L24.4715 7.94605C24.0854 7.56876 23.4674 7.57665 23.091 7.96368L6.76581 24.7526C6.38948 25.1396 6.39736 25.7592 6.7834 26.1365L7.50287 26.8396C7.88892 27.2169 8.50695 27.209 8.88329 26.822L25.2085 10.0331C25.5849 9.64606 25.577 9.02647 25.1909 8.64918Z" fill="#5B52E7"/>
<path d="M32.5879 15.8774L31.8684 15.1743C31.4824 14.797 30.8644 14.8049 30.488 15.1919L14.1628 31.9808C13.7864 32.3679 13.7943 32.9875 14.1804 33.3648L14.8998 34.0679C15.2859 34.4452 15.9039 34.4373 16.2803 34.0503L32.6055 17.2613C32.9818 16.8743 32.974 16.2547 32.5879 15.8774Z" fill="#5B52E7"/>
<path d="M30.1411 10.981L29.4217 10.2779C29.0356 9.90058 28.4176 9.90847 28.0412 10.2955L20.0877 18.475C19.7113 18.862 19.7192 19.4816 20.1053 19.8589L20.8247 20.562C21.2108 20.9393 21.8288 20.9314 22.2051 20.5444L30.1587 12.3649C30.535 11.9779 30.5272 11.3583 30.1411 10.981Z" fill="#5B52E7"/>
<path d="M19.2451 22.1877L18.5257 21.4846C18.1396 21.1073 17.5216 21.1152 17.1452 21.5022L9.19168 29.6817C8.81535 30.0687 8.82322 30.6883 9.20927 31.0656L9.92874 31.7687C10.3148 32.146 10.9328 32.1381 11.3092 31.7511L19.2627 23.5716C19.6391 23.1846 19.6312 22.565 19.2451 22.1877Z" fill="#5B52E7"/>
<g clip-path="url(#clip0_5020_16)">
<path d="M0.944237 13.3586C1.50737 14.581 2.54599 14.5243 2.90676 13.2857C3.33998 11.8149 5.93349 10.5372 7.82809 10.9276C9.29698 11.21 9.37548 11.2856 9.05094 12.408C8.87131 13.0658 9.04495 14.0639 9.40426 14.7122C10.0398 15.7023 9.89343 16.0899 7.89927 18.4738C6.20552 20.4673 5.57453 21.6721 5.26662 23.6414C3.6501 33.4891 15.2232 40.4103 22.7636 34.1556C24.2792 32.8968 25.5775 32.335 27.9219 32.1014C32.7241 31.5167 32.6108 31.6342 33.0666 27.3904C33.3262 24.9214 33.9391 22.7928 34.6878 21.7015C38.7712 15.8924 35.3244 7.05753 28.2804 5.2555C24.4097 4.24507 21.1535 5.11073 18.0512 7.93758C16.3107 9.50835 15.3219 10.1418 14.9686 9.8014C14.6939 9.53666 13.6507 9.36239 12.6498 9.37991C10.9953 9.44739 10.8005 9.33528 10.5438 8.03052C10.0833 6.15173 11.303 3.55038 12.7961 3.10065C13.6762 2.81569 13.8241 2.50504 13.504 1.89453C12.9409 0.672155 11.6336 0.772062 11.2366 2.12677C11.0177 2.74672 10.5452 4.17977 10.106 5.34268C9.70443 6.46642 9.54295 8.04805 9.86604 8.81254C10.1891 9.57703 10.319 10.3064 10.168 10.4631C10.0171 10.6197 9.28337 10.5171 8.50741 10.2226C7.73145 9.92812 6.15691 10.1482 5.04885 10.5912C3.90305 11.0734 2.52779 11.6365 1.99188 11.8C0.615105 12.2861 0.503398 12.4806 0.944237 13.3586ZM22.4021 9.86378C28.282 7.29636 34.2211 13.6231 31.2126 19.2593C30.654 20.2318 28.2462 23.1235 25.8686 25.5911C23.491 28.0587 20.6908 30.5722 19.7397 31.1665C14.3338 34.3417 7.75465 28.7578 9.94797 22.7893C10.825 20.3865 19.958 10.9078 22.4021 9.86378Z" fill="#5B52E7"/>
</g>
<defs>
<clipPath id="clip0_5020_16">
<rect width="18.3847" height="8.57953" fill="white" transform="translate(0 13.2391) rotate(-46.0641)"/>
</clipPath>
</defs>
</svg>
