<svg width="215" height="260" viewBox="0 0 215 260" fill="none" xmlns="http://www.w3.org/2000/svg">
<g opacity="0.02" clip-path="url(#clip0_2376_1181)">
<path d="M45.0096 11.0807L36.836 3.14031C32.4503 -1.12031 25.429 -1.03115 21.1536 3.33943L-116.866 144.432C-121.142 148.803 -121.052 155.8 -116.667 160.06L-108.493 168.001C-104.107 172.261 -97.086 172.172 -92.8106 167.802L45.2094 26.7088C49.4848 22.3383 49.3954 15.3413 45.0096 11.0807Z" fill="white"/>
<path d="M211.63 172.938L203.456 164.998C199.071 160.737 192.049 160.826 187.774 165.197L49.7539 306.29C45.4785 310.66 45.568 317.657 49.9537 321.918L58.1273 329.858C62.5131 334.119 69.5343 334.03 73.8097 329.659L211.83 188.566C216.105 184.196 216.016 177.199 211.63 172.938Z" fill="white"/>
<path d="M109.247 27.0787L101.073 19.1384C96.6877 14.8777 89.6664 14.9669 85.391 19.3375L-100.074 208.931C-104.349 213.302 -104.26 220.299 -99.8741 224.56L-91.7005 232.5C-87.3147 236.761 -80.2935 236.671 -76.0181 232.301L109.447 42.7069C113.722 38.3363 113.633 31.3393 109.247 27.0787Z" fill="white"/>
<path d="M193.281 108.706L185.107 100.765C180.721 96.5047 173.7 96.5938 169.425 100.964L-16.0403 290.559C-20.3157 294.929 -20.2263 301.926 -15.8405 306.187L-7.66692 314.127C-3.28116 318.388 3.7401 318.299 8.0155 313.928L193.481 124.334C197.756 119.963 197.666 112.966 193.281 108.706Z" fill="white"/>
<path d="M165.484 53.4107L157.31 45.4704C152.924 41.2098 145.903 41.2989 141.628 45.6695L51.2702 138.039C46.9948 142.409 47.0842 149.406 51.47 153.667L59.6436 161.607C64.0293 165.868 71.0506 165.779 75.326 161.408L165.684 69.0389C169.959 64.6683 169.869 57.6714 165.484 53.4107Z" fill="white"/>
<path d="M41.6971 179.967L33.5235 172.027C29.1378 167.766 22.1165 167.856 17.8411 172.226L-72.5164 264.595C-76.7918 268.966 -76.7024 275.963 -72.3166 280.224L-64.143 288.164C-59.7573 292.424 -52.736 292.335 -48.4606 287.965L41.8969 195.596C46.1723 191.225 46.0829 184.228 41.6971 179.967Z" fill="white"/>
</g>
<defs>
<clipPath id="clip0_2376_1181">
<rect width="335" height="333" fill="white" transform="translate(-120)"/>
</clipPath>
</defs>
</svg>
